<svg xmlns="http://www.w3.org/2000/svg" xmlns:xlink="http://www.w3.org/1999/xlink" viewBox="0 0 652 652"><defs><path id="a" d="M70.8 71.9h500v500h-500z"/></defs><clipPath id="b"><use xlink:href="#a" overflow="visible"/></clipPath><path d="M440.4 285.8c.8 44.1-19.4 74-25.8 84.4-5.5 9-18.8 26.5-44.3 53.6-32.2 34.2-132.7 141-139.4 148.1h272.6l-62.9-286.2-.2.1zm25.1 146l2.3 10.2c-27 29.2-68.3 51-116.4 51-10.3 0-21.1-1-33-3.5 2.4-2.6 4.8-5.1 6.9-7.4 7.7 1.4 16.5 2.3 25.6 2.3 46.7.1 87.6-21 114.6-52.6M70.8 71.9v500H220l147.6-157-.2-.2c-23.7 16.7-53.9 25.8-86.3 25.8-60.2 0-113.2-35.7-136.2-80.1l-.2.2L176 466.3h-8.5s-15.5-53.5-28.8-100.2c-10-35.3-16.2-61.5-16.1-84.7.3-79.9 63.1-153.1 146.6-158.5 2.3-.2 9.4-.9 20-.9 64.3 0 262.6 1.5 281.7 1.6V71.9H70.8zm175.6 371.8c12 10.4 30.9 23.4 54.4 31.8-2 2.1-4.1 4.4-6.4 6.8-23.4-9.3-46.3-23.7-64.2-43 5.1 1.7 10.6 3.2 16.2 4.4m80.4-314c24.6 6.9 47.8 19.6 66.2 36.7-5.3-1.4-10.7-2.6-16.2-3.4-25.8-20.4-59.5-32.6-94.6-32.6-83 0-151 67.7-151 150.9s67.7 150.9 150.9 150.9S433 364.5 433 281.3c0-32.2-12.1-64.4-28.8-87.1 4 1.2 8.8 3.2 14.4 6.5 11.3 17.1 21.7 45 30.7 87.8 9.4 44.9 57.7 260 63 283.3h58.5V131l-244-1.5v.2zm-168 148.1c0-20.2 15.3-33.6 36-33.6 8.1 0 17.3 2.5 22.5 4.7-1.1 2.4-2 5.5-2.3 7.5l-.6.2c-4-4.4-10.4-8.2-19.9-8.2-12 0-25.9 9.8-25.9 29.2 0 18.9 14.1 29 26.8 29 11.3 0 16.8-5.3 21.7-9.4l.4.4-1.4 7.4c-2.2 1.7-10 6.5-21.7 6.5-21.2-.1-35.6-13.4-35.6-33.7m49.6 125.7c-11.2-22.8-16.3-45.9-16.9-67.9 2.8 0 6.1.1 9 .1 1 21.1 5.8 47.4 22.3 76-6-2.2-10.5-5.1-14.4-8.2m60.1-93.3c-3.4-.2-8.1-.3-12.5-.4-2.6 0-5-.1-7-.1h-.8c-5.7 0-14.5.2-20.2.5.4-8.2.8-16.3.8-24.4v-16.1c0-8.1-.4-16.2-.8-24.2 5.6.3 14.3.5 20 .5s16.1-.2 19.4-.5c-.1.9-.2 1.9-.2 3.2 0 1.3.1 2.6.2 3.2-6.2-.5-17.2-1.2-29.4-1.2-.1 4-.3 21.1-.3 23.5 11.1 0 18.2-.5 23.7-.9-.2.9-.3 2.6-.3 3.6 0 .9.1 2.3.3 3.3-6.5-.7-21-.8-23.7-.8-.2 3.1 0 23.4.1 25.2 6.9-.1 24.4-.6 30.8-1.2-.1.7-.2 2.2-.2 3.6s-.1 2.2.1 3.2m55.1-.3c-.9 0-4.1 0-5.9.3-3.7-5.6-15.6-23.5-23.7-31.8h-4.8v7.5c0 8.1.4 16.2.8 24.3-1.6-.3-4.5-.3-5.1-.3-.6 0-3.5 0-5.1.3.4-8.1.8-16.2.8-24.3v-16.1c0-8.1-.4-16.2-.8-24.3 3.6.3 8.1.5 11.7.5 3.6 0 7.1-.5 10.7-.5 10.6 0 20.3 3.1 20.3 14.9 0 12.5-12.4 17-19.6 17.9 4.6 5.7 21.1 25.8 26.5 31.9-1.8-.3-5-.3-5.8-.3m71 1.2h-3.1c-3.8-5.1-43.1-46.2-46.6-49.8-.1 3.5-.1 10.7-.1 17.7 0 9.3.7 23.6 1.1 31.2-1-.2-2.4-.3-4-.3-1.7 0-3 .2-4.1.3.8-9.9 1-26 1-41.2 0-11.8-.2-18.3-.3-24.3h3.1c4 4.3 43.1 44.9 46.6 48.5.1-3.5.1-9.6.1-16.6 0-9.3-.7-23.6-1.1-31.2 1 .2 2.4.3 4 .3 1.7 0 3-.1 4.1-.3-.8 9.9-1 26-1 41.2 0 11.8.2 18.5.3 24.5m80.8-83.2c17.4 21.4 31.6 55.2 33.6 83.6h.3l14.5-150.1h8.2s-9.3 97-14.7 145.3c-6.8 60.4-15.4 85.5-31.9 111.8l-2.5-11.5c12.8-22.6 16.5-42.2 18.2-52.6 5.2-32.3-2.2-76.4-24.7-110.8-25.2-38.5-70.3-66.9-125.6-66.9-45.4 0-84.9 20-112.5 51.1l-6.7-5.3c29.2-33.1 71.6-54.2 119.2-54.2 49.9.1 94.3 22.5 124.6 59.6m-161.9 33.8c0-9.3-8.2-12.3-14.5-12.3-4.3 0-7.1.3-9.1.5-.3 6.9-.6 13.2-.6 19.9v5.2c.9.1 5.3.1 6.3.1 7.7-.3 17.9-2.7 17.9-13.4" clip-path="url(#b)" fill="#0052a3"/></svg>